<?xml version="1.0" encoding="UTF-8"?>
<svg width="752pt" height="752pt" version="1.1" viewBox="0 0 752 752" xmlns="http://www.w3.org/2000/svg">
 <path d="m606.15 382.19c-3.3008-60.336 6.6445-121 0.92969-181.18-5.2695-55.453-80.391-57.289-120.59-56.977-49.207 0.37109-98.906-1.7461-148.53-2.7812-1.5078-0.14844-3.0039-0.32422-4.5156-0.39844-0.8125-0.03125-1.8633 0.089843-2.9883 0.26562-37.5-0.67969-74.945-0.63672-112.06 1.8203-37.32 2.4844-75.176 15.688-78.211 57.348-0.015625 0.22266 0.16406 0.32422 0.17969 0.53125-0.046876 0.25391-0.25391 0.47266-0.25391 0.74219 4.4531 116.57 0.5625 232.45 1.168 348.93 0.37109 70.461 83.129 57.305 133.76 57.629 86.68 0.5625 176.11 8.1094 262.38-2.3672 41.469-5.0312 75.121-28.238 74.457-73.746-0.74219-49.949-2.9883-99.926-5.7266-149.82zm-138.84-128.37c0.32422-12.727 1.9844-25.41 2.1758-38.125 0-0.089844 0.089844-0.14844 0.10547-0.25 0.03125-0.29688-0.015625-0.51953 0.03125-0.8125 0.63672-4.293 12.062-6.3047 15.168-6.3789 17.418-0.39844 54.078-11.012 59.953 13.008 3.6562 14.949 7.8438 47.609-7.6211 57.867-15.422 10.242-46.988 11.352-62.852 1.3008-8.1289-5.1328-7.1836-18.246-6.9609-26.609zm-180.02 189.58c-0.10547-0.16406-0.22266-0.29688-0.3125-0.45703-0.089844-0.16406-0.14844-0.32422-0.23828-0.47266 0.17969 0.29297 0.35937 0.61719 0.55078 0.92969zm81.367-127.23c64.379 6.0664 108.75 79.945 63.578 133.34-36.273 42.859-97.973 24.477-123.61-17.551-24.359-39.977 9.9766-116.34 60.027-115.79zm138.52 282.43c-22.805 1.2734-45.848-0.11719-68.684 0.058594-66.137 0.51953-132.22-1.0508-198.36-1.375-49.254-0.25-78.023-18.113-76.484-69.07 1.1094-36.73 1.7773-73.465 2.0859-110.21 0.23828-29.082 0-58.16-0.45703-87.242 38.625 0.26563 77.254 0.90234 115.86 1.5703-11.07 14.488-19.551 31.598-24.848 50.613-21.531 77.27 53.25 128.06 121.56 124.24 56.742-3.2109 114.1-43.523 120.94-101.95 3.0781-26.254-4.0547-49.52-17.418-68.625 34.809 0.73828 69.484 0.03125 104.26-6.3633-0.089844 55.469 1.8633 110.67 3.3281 166.33 1.4922 57.375 12.43 96.742-81.797 102.02z"/>
</svg>
