<?xml version="1.0" encoding="UTF-8"?>
<svg width="752pt" height="752pt" version="1.1" viewBox="0 0 752 752" xmlns="http://www.w3.org/2000/svg">
 <defs>
  <clipPath id="b">
   <path d="m412 151h200.79v461.79h-200.79z"/>
  </clipPath>
  <clipPath id="a">
   <path d="m139.21 139.21h276.79v465.79h-276.79z"/>
  </clipPath>
 </defs>
 <path d="m446.88 259.58c2.1172 7.1914 3.6523-5.6562 9.75-2.4414 1.7188 12.281-8.9805 12.133-9.75 21.926 14.43 8.2812 20.969 29.188 46.301 19.496 0.60938 13.602-9.5625 16.434-17.059 21.934-1.1719 7.6719 7.4766 5.5195 4.8828 14.617-5.1719 3.7617-10.859 7.0078-17.059 9.7461 4.2656 33.57-8.0039 58.492-14.625 87.719-26.047 44.973-87.27 82.98-160.82 75.543-35.133-3.5625-77.984-13.781-95.031-38.992 48.723-0.83203 64.863-34.223 80.41-68.223-4.0039-4.1211-13.219-3.0312-17.055-7.3086-2.0156-6.8984 3.4297-6.3203 2.4375-12.191-6.3203-3.4258-16.117-3.3711-21.926-7.3086-5.8828-5.6562 3.8047-6.5195 4.8711-12.176-12.082-7.4141-27.332-11.66-38.984-19.496 0.46875-7.6562 4.5234-11.719 12.176-12.188-4.3047-11.691-16.719-0.57422-19.492-12.176-4.2656-15.645 13.074-9.6602 14.617-19.496-4.6523-7.5352-17.543-6.8242-21.934-14.617 48.32-37.785 114.52 11.371 138.89 43.859 19.895-64.574 76.488-92.453 138.89-114.53 4.1445-0.89062 4.5938 1.8984 4.8711 4.8789-15.023 12.312-14.25 25.852-24.363 41.422zm-112.09 77.969c49.504-5.2305 39.297-82.109 104.77-63.355-7.8086-13.852 3.7852-27.094 7.3125-41.43-60.453 11.695-99.809 52.453-112.09 104.79zm-129.14-53.605c6.1094 4.4531 16.051 5.0742 19.496 12.18-2.293 9.8945-16.395 7.9766-19.496 17.055 4.2461 7.125 18.066 4.6797 21.934 12.188-2.0586 7.6875-12.566 6.9297-14.617 14.617 13.812 4.8672 23.5 13.859 38.984 17.055 0.54688 7.2734-8.9961 8.2891-2.4375 14.625 9.3125-0.37891 17.75 0.12109 21.934 4.8711-1.3789 5.0664-6.9609 7.8789-2.4375 12.18 9.4336 2.3047 10.031-9.4961 17.055-2.4375-12.164 40.629-30.836 74.758-70.668 87.727 57.102 38.75 173.64 27.477 209.55-21.934 11.629-32.23 33.43-54.305 26.809-104.78 2.9102-6.0312 8.3398-9.5312 14.617-12.188 1.1797-7.6719-7.4727-5.5195-4.8789-14.617 4.5898-3.5312 12.664-3.582 14.617-9.7461-7.6211-0.5-17.879 1.6406-21.934-2.4414-0.54297-4.6055 2.7539-5.3711 2.4414-9.7461-61.418-55.746-72.074 47.742-129.14 48.738-19.223-39.09-71.824-78.824-121.83-63.344z" fill-rule="evenodd"/>
 <path d="m405.45 305.87c15.891-0.44922 23.543 7.3281 31.684 14.625-0.81641 12.988-10.02 17.598-24.367 17.055-1.0742-2.9922-3.1211-5.0039-7.3125-4.8711-0.76172-8.0078-5.6445-19.953-0.003906-26.809zm17.059 19.492c-0.84375-5.6562-1.5781-11.418-9.75-9.75-1.1328 7.6367 2.1211 10.883 9.75 9.75z" fill-rule="evenodd"/>
 <g clip-path="url(#b)">
  <path d="m583.34 264.45c11.129-39.445-2.8477-77.918-7.3125-104.78 8.3516-5.3242 22.949 0.41016 31.672 2.4375 3.0938 53.613 19.645 132.63-14.617 163.27 3.5938 92.121-44.57 132.49-82.84 182.75 3.4688-5.2891 32.156-8.8828 41.418-9.7539 10.312-14.059 12.18-36.543 26.805-46.289 7.9883 14.539-16.258 17.801-12.176 36.551 19.148 2.8672 28.547-25.047 38.984-38.992 3.0117 37.945-29.332 40.516-46.301 58.48 14.148 5.1992 29.562 10.32 41.422 0-3.5195 31.641-40.621 4.9727-58.48 7.3086-22.242 2.9219-28.922 20.57-41.422 34.109 13.301-3.7891 26.305-20.742 41.422-14.617-21.91 11.352-49.695 27.219-51.172 51.172 2.6797 10.324 13.375 12.613 12.188 26.816-25.625 2.0352-55.02 1.2852-82.852 0 7.1289-34.992 19.469-70.09 38.992-97.473 16.633-23.352 42.637-34.539 43.859-58.477 0.99609-19.555-13.453-26.043-17.059-46.301 20.102 6.7031 28.363 25.254 26.805 53.609 36.754-22.16 56.008-114.57 0-129.14 1.7188-8.7617 11.445-3.4258 14.617 0 1.1406-9.5938-5.1094-12.656 2.4414-17.055 9.125 8.7383 2.4219 33.324 19.492 34.109 12.445-53.062-12.734-89.602-65.797-85.281 3.5078-17.461 27.945-1.3008 43.863-2.4414 3.2344-14.117 6.957-26.953-4.8711-41.422-9.4492-11.566-24.422-11.402-46.301-21.926-19.48-9.375-35.887-26.969-46.289-31.684-5.5586-2.5156-19.133 2.3008-17.059-7.3086 15.355-14.051 31.965 11.523 46.301 14.617 6.0156-8.3945-7.1719-14.438-7.3125-24.363 12.406-4.3867 28.93 6.2812 48.73 2.4375 15.711 20.164 35.543 17.449 48.738 31.684 18.449 19.895 6.8203 61.555 34.109 77.953z" fill-rule="evenodd"/>
 </g>
 <g clip-path="url(#a)">
  <path d="m290.93 135.3c-4.5781 21.41-17.121 34.859-36.551 41.422 35.012 3.3281 74.605-9.8555 85.281-38.984 5.7422-0.058593 7.1719 4.1953 14.617 2.4375 0.54297 12.719-7.2891 17.074-12.18 24.367 22.742-5.7188 47.367-32.684 73.102-19.496-2.5508 16.812-34.781 3.9531-41.422 21.934-32.977 16.57-76.695 22.395-119.39 29.242 8.0469 6.5703 24.758 4.4844 29.242 14.617-8.7578 7.25-40.355-14.719-58.48 0-0.36719 7.6758 13.59 1.0312 9.7461 12.188-84.828-12.273-65.723 81.453-68.234 158.38-1.75 53.477-5.7969 98.129 19.492 131.59 25.445 33.66 59.188 53.363 109.65 56.047 1.7383-12.824-22.852-19-24.363-36.551 15.797 1.9609 18.117 18.441 29.242 26.805 24.367 18.312 58.676 21.773 87.719 36.551-23.504 13.012-57.762 8.5859-87.719 7.3086-50.484-2.168-104.84-14.008-153.52-4.8672-6.418-55.848 4.5586-111.11 2.4375-173.02-1.9688-57.395-14.008-114.09-14.621-168.13-0.24609-21.746 8.9102-43.117 9.75-63.355 0.84766-20.434-14.16-33.977-7.3125-53.609 14.902 15.586 16.93 49.988 12.18 77.977 6.1602-15.898 24.68-23.016 34.113-36.551 8.1992-11.762 4.7305-31.902 21.926-36.551 2.582 17.203-4.9375 24.305-7.3086 36.551 21.516-10.184 69.57-27.883 85.285-43.859 1.9648-1.2852 3.9648-2.543 7.3203-2.4375zm-136.46 194.94c-1.5508-8.9961 3.1562-24.27-2.4297-29.242-2.5859 9.9727-3.5742 21.961 2.4297 29.242z" fill-rule="evenodd"/>
 </g>
</svg>
